<?xml version="1.0" encoding="utf-8"?>
<!-- Svg Vector Icons : http://www.onlinewebfonts.com/icon -->
<!DOCTYPE svg PUBLIC "-//W3C//DTD SVG 1.1//EN" "http://www.w3.org/Graphics/SVG/1.1/DTD/svg11.dtd">
<svg version="1.1" xmlns="http://www.w3.org/2000/svg" xmlns:xlink="http://www.w3.org/1999/xlink" x="0px" y="0px" viewBox="0 0 1000 1000" enable-background="new 0 0 1000 1000" xml:space="preserve">
<metadata> Svg Vector Icons : http://www.onlinewebfonts.com/icon </metadata>
<g><path d="M131.6,99c7.6-59.2,31.9-87.3,74.7-88.8c46.8-1.7,71,23.8,82.5,88.3h413c16-27.2,26.9-54,45.2-73.9C757,13.9,779.5,11,796.4,11c40.8,0.1,62.4,27.6,72.1,89.3c11.9,0,24.6-0.2,37.3,0c54.3,0.8,83.7,29.2,83.9,83.6c0.6,123.7,0.2,247.4,0.2,371c0,114.3,0.2,228.6-0.1,342.9c-0.1,65.9-26.2,91.9-91.8,91.9c-264.2,0.1-528.4,0.1-792.7,0C36,989.8,10,964.1,10,895.4c-0.1-233.3,0-466.6,0-699.9c0-68.4,26.1-94.5,95.1-95.2C113.4,100.2,121.7,99.5,131.6,99L131.6,99z M69.6,370.5V403c0,163,0,325.9,0,488.9c0,36.5,1.1,37.5,38.1,37.5c261.4,0,522.7,0,784.1,0c38,0,39.5-1.4,39.5-39.6c0.1-162-0.6-324.1,0.7-486.1c0.2-27.9-8.8-33.9-35.1-33.8c-264.2,0.9-528.3,0.6-792.5,0.6H69.6L69.6,370.5z M741.9,153.3c0.1,0,0.3,0,0.4,0c0,23.3-1.6,46.8,0.4,70c2.5,28.3,22.4,45.9,47.4,45.8c26.1-0.2,46-19.8,46.8-49.3c1.1-43.9,1-87.8,0.1-131.7c-0.6-29.3-20-48.8-46.6-49.8c-25.6-0.9-46.5,18.8-48.3,47.8C740.8,108.5,741.9,130.9,741.9,153.3L741.9,153.3z M162,150.9h0.4c0,24.3-1.5,48.7,0.4,72.8c2.2,27.5,23.2,45.8,48,45.4c25.3-0.4,45.4-18.7,46.3-46.8c1.5-45.7,1.5-91.6,0-137.3c-0.9-27.6-21.7-46.3-46.7-46.7c-25.8-0.4-46.6,19.6-48.1,48.2C161.1,107.9,162,129.4,162,150.9L162,150.9z"/><path d="M185.5,831.1v-65.7h136.6v65.7H185.5L185.5,831.1z"/><path d="M433.2,831.8v-66.6h135.7v66.6H433.2L433.2,831.8z"/><path d="M679.5,831.9v-66.7h131.8v66.7H679.5L679.5,831.9z"/><path d="M323,484.5v64H186.6v-64H323L323,484.5z"/><path d="M433.4,548.2v-63.9h135.6v63.9H433.4L433.4,548.2z"/><path d="M185.9,688.9v-63.2h136.5v63.2H185.9L185.9,688.9z"/><path d="M433.6,625.4h134.9v63.4H433.6V625.4L433.6,625.4z"/><path d="M811.7,548.6H679.6v-63.9h132.1V548.6L811.7,548.6z"/><path d="M812.6,626.4v62.5H679.9v-62.5H812.6L812.6,626.4z"/></g>
</svg>