<?xml version="1.0" encoding="utf-8"?>
<!-- Svg Vector Icons : http://www.onlinewebfonts.com/icon -->
<!DOCTYPE svg PUBLIC "-//W3C//DTD SVG 1.1//EN" "http://www.w3.org/Graphics/SVG/1.1/DTD/svg11.dtd">
<svg version="1.1" xmlns="http://www.w3.org/2000/svg" xmlns:xlink="http://www.w3.org/1999/xlink" x="0px" y="0px" viewBox="0 0 1000 1000" enable-background="new 0 0 1000 1000" xml:space="preserve">
<metadata> Svg Vector Icons : http://www.onlinewebfonts.com/icon </metadata>
<g><path d="M913.4,836.9H117.2C66.5,836.9,10,780.4,10,729.7v-490c0-50.8,56.5-76.6,107.2-76.6h796.2c50.8,0,76.6,25.8,76.6,76.6v490C990,780.4,964.2,836.9,913.4,836.9L913.4,836.9z M913.4,224.4h-15.3H117.2c-16.9,0-45.9-1.6-45.9,15.3v490c0,16.9,29.1,45.9,45.9,45.9h796.2c16.9,0,15.3-29,15.3-45.9v-490C928.8,222.8,930.3,224.4,913.4,224.4L913.4,224.4z M979.4,250.4L520,617.9c-5.7,5-12.9,7.5-20,7.5c-7.2,0-14.3-2.5-20.1-7.5L20.6,250.4C7.8,239.3,6.4,220,17.5,207.2c11.1-12.8,30.4-14.2,43.2-3.1L500,554.2l439.3-350.1c12.8-11.1,32.1-9.7,43.2,3.1C993.6,220,992.2,239.3,979.4,250.4L979.4,250.4z"/></g>
</svg>