<!--?xml version="1.0" standalone="no"?-->

<svg version="1.0" xmlns="http://www.w3.org/2000/svg" width="300.000000pt" height="300.000000pt" viewBox="0 0 300.000000 300.000000" preserveAspectRatio="xMidYMid meet">
<g transform="translate(0.000000,300.000000) scale(0.100000,-0.100000)" fill="#030303" stroke="none">
<path class="node" id="node1" d="M1580 2705 c0 -60 -4 -87 -12 -89 -7 -2 -52 -9 -99 -15 -122 -16
-265 -65 -374 -128 -271 -158 -469 -414 -545 -707 -21 -79 -43 -263 -34 -278
3 -4 514 -8 1135 -8 1035 0 1130 1 1136 16 9 25 -26 249 -52 329 -133 411
-495 722 -905 776 -47 6 -91 13 -97 15 -9 2 -13 29 -13 89 l0 85 -70 0 -70 0
0 -85z"></path>
<path class="node" id="node2" d="M297 1343 c-4 -3 -7 -19 -7 -35 l0 -28 1355 0 1355 0 0 35 0 35
-1348 0 c-742 0 -1352 -3 -1355 -7z"></path>
<path class="node" id="node3" d="M2848 1053 c-37 -22 -227 -176 -282 -229 -27 -26 -136 -95 -181 -115
-42 -18 -75 -22 -200 -27 -134 -4 -152 -3 -165 13 -36 43 59 95 188 102 105 5
138 17 157 54 33 64 -30 110 -210 153 -149 36 -270 49 -470 50 -200 1 -277 -9
-470 -59 -199 -51 -283 -64 -500 -75 -110 -5 -233 -13 -272 -16 l-73 -7 0
-245 0 -245 188 7 c205 7 291 -2 482 -49 157 -39 190 -48 365 -99 199 -59 284
-66 505 -42 204 23 333 50 389 82 88 51 192 136 328 267 233 226 327 359 321
455 -3 42 -6 47 -28 50 -14 1 -46 -10 -72 -25z"></path>
<path class="node" id="node4" d="M0 680 l0 -370 145 0 145 0 0 370 0 370 -145 0 -145 0 0 -370z"></path>
</g>
<g transform="translate(0.000000,300.000000) scale(0.100000,-0.100000)" fill="#A8A8A8" stroke="none">

</g>
</svg>