<?xml version="1.0" encoding="utf-8"?>
<!-- Generator: Adobe Illustrator 16.0.0, SVG Export Plug-In . SVG Version: 6.00 Build 0)  -->
<!DOCTYPE svg PUBLIC "-//W3C//DTD SVG 1.1//EN" "http://www.w3.org/Graphics/SVG/1.1/DTD/svg11.dtd">
<svg version="1.1" id="Layer_1" xmlns="http://www.w3.org/2000/svg" xmlns:xlink="http://www.w3.org/1999/xlink" x="0px" y="0px"
	 width="400px" height="400px" viewBox="0 0 400 400" enable-background="new 0 0 400 400" xml:space="preserve">
<circle fill="#F29C1F" cx="200" cy="200" r="197.171"/>
<g>
	<path fill="none" stroke="#FFFFFF" stroke-width="15" stroke-linecap="round" stroke-miterlimit="10" d="M75.634,281.503
		l-26.87-26.87c-4.681-4.682-4.681-12.289,0-16.971L237.328,49.098c4.688-4.688,12.289-4.681,16.97,0l26.87,26.87"/>
	<path fill="none" stroke="#FFFFFF" stroke-width="15" stroke-linecap="round" stroke-miterlimit="10" d="M333.027,127.827
		l26.87,26.87c4.681,4.681,4.688,12.283,0,16.971L171.333,360.232c-4.681,4.681-12.29,4.681-16.971,0l-26.87-26.87"/>
	<path fill="none" stroke="#FFFFFF" stroke-width="15" stroke-linecap="round" stroke-miterlimit="10" d="M281.168,75.968
		c-14.318,14.319-14.318,37.54,0,51.859c14.319,14.319,37.541,14.319,51.859,0"/>
	<path fill="none" stroke="#FFFFFF" stroke-width="15" stroke-linecap="round" stroke-miterlimit="10" d="M75.634,281.503
		c14.319-14.319,37.54-14.319,51.859,0c14.319,14.318,14.319,37.54,0,51.859"/>
</g>
<g>
	<g>
		
			<line fill="none" stroke="#FFFFFF" stroke-width="6" stroke-linecap="round" stroke-miterlimit="10" x1="189.713" y1="96.713" x2="193.956" y2="100.956"/>
		
			<line fill="none" stroke="#FFFFFF" stroke-width="6" stroke-linecap="round" stroke-miterlimit="10" stroke-dasharray="12.4108,12.4108" x1="202.731" y1="109.731" x2="303.652" y2="210.652"/>
		
			<line fill="none" stroke="#FFFFFF" stroke-width="6" stroke-linecap="round" stroke-miterlimit="10" x1="308.041" y1="215.041" x2="312.283" y2="219.283"/>
	</g>
</g>
</svg>
