<?xml version="1.0" encoding="utf-8"?>
<!-- Svg Vector Icons : http://www.onlinewebfonts.com/icon -->
<!DOCTYPE svg PUBLIC "-//W3C//DTD SVG 1.1//EN" "http://www.w3.org/Graphics/SVG/1.1/DTD/svg11.dtd">
<svg version="1.1" xmlns="http://www.w3.org/2000/svg" xmlns:xlink="http://www.w3.org/1999/xlink" x="0px" y="0px" viewBox="0 0 1000 1000" enable-background="new 0 0 1000 1000" xml:space="preserve">
<metadata> Svg Vector Icons : http://www.onlinewebfonts.com/icon </metadata>
<g><path d="M377.5,11C174.5,11,10,175.5,10,378.5s164.5,367.5,367.5,367.5c203,0,367.5-164.5,367.5-367.5S580.5,11,377.5,11z M377.5,82.5c56.8,0,83.2,14.1,83.2,58.8s-65.8,86.9-83.2,86.9c-17.4,0-83.3-42.1-83.3-86.9S320.8,82.5,377.5,82.5z M132.1,390.7c-42.6-13.8-47.9-43.3-30.4-97.2c17.5-54,39-74.9,81.7-61.1c42.5,13.8,62.4,89.4,56.9,105.9C235,354.9,174.7,404.5,132.1,390.7z M309.9,618.2c-24.6,37.5-54.4,35-102,4c-47.4-31-61.9-57.3-37.5-94.7c24.4-37.5,102.5-36.8,117.1-27.3C302.1,509.6,334.2,580.9,309.9,618.2z M377.5,433.7c-30.5,0-55.1-24.7-55.1-55.1s24.7-55.1,55.1-55.1c30.5,0,55.1,24.7,55.1,55.1S408,433.7,377.5,433.7z M550.3,617.2c-46.2,32.8-76,36.7-101.8,0.2c-26-36.5,3.4-108.9,17.4-118.9c14.2-10.2,92.3-13.8,118.1,22.4C609.9,557.4,596.6,584.3,550.3,617.2z M622.7,390.7c-42.6,13.8-102.9-35.9-108.2-52.4c-5.5-16.5,14.5-92.1,56.9-105.9c42.7-13.8,64.2,7.1,81.7,61.1C670.6,347.4,665.3,376.9,622.7,390.7z"/><path d="M867.5,806.9c0-61.2,25.2-98.7,54.5-142.1C953.9,617.5,990,564,990,479.1c0-132.8-147.4-251.9-274.8-330.1c29,42.6,50.1,91.1,61.3,143.1c73.8,58.5,131.8,124.7,131.8,187c0,136.9-122.5,173.3-122.5,327.8c0,130.8,144.3,180.1,150.5,182.1l25.7-77.5C961.1,911.1,867.5,878.2,867.5,806.9z"/></g>
</svg>