<?xml version="1.0" encoding="utf-8"?>
<!-- Svg Vector Icons : http://www.onlinewebfonts.com/icon -->
<!DOCTYPE svg PUBLIC "-//W3C//DTD SVG 1.1//EN" "http://www.w3.org/Graphics/SVG/1.1/DTD/svg11.dtd">
<svg version="1.1" xmlns="http://www.w3.org/2000/svg" xmlns:xlink="http://www.w3.org/1999/xlink" x="0px" y="0px" viewBox="0 0 1000 1000" enable-background="new 0 0 1000 1000" xml:space="preserve">
<metadata> Svg Vector Icons : http://www.onlinewebfonts.com/icon </metadata>
<g><path d="M948.3,311.7L692.2,55.6C638.3,1.7,543.6,1.4,489.3,54.8L52.5,484.6c-27.3,26.8-42.4,62.7-42.5,101c-0.1,38.4,14.6,74.3,41.7,101.3L307.9,943c27.1,27.1,63.3,42,101.8,42c38.1,0,74.1-14.6,101-41.1L947.5,514c27.3-26.8,42.4-62.7,42.5-101C990.1,374.7,975.4,338.8,948.3,311.7L948.3,311.7z M880.5,446L443.7,875.9c-18.2,17.8-50.4,17.7-68.4-0.3l-60.9-60.9c33.9-37.5,33.1-95.2-3-131.4c-36.2-36.1-94-36.9-131.4-3l-60.9-60.8c-8.9-8.9-13.8-20.8-13.7-33.4c0-12.6,5-24.5,14-33.3l436.8-429.9c9-8.9,21.1-13.8,34.1-13.8c13,0,25.2,5,34.3,14l60.9,60.9c-33.9,37.5-33.1,95.2,3,131.4c36.2,36.1,93.9,36.9,131.4,3l60.8,60.8c8.9,8.9,13.8,20.8,13.7,33.4C894.5,425.3,889.5,437.2,880.5,446L880.5,446z"/><path d="M476.3,740.1L254,517.8l269.7-259.2l222.4,222.3L476.3,740.1z M322.1,518.4L477,673.2l200.8-193L523,325.5L322.1,518.4z"/></g>
</svg>